<?xml version="1.0" encoding="utf-8"?>
<!-- Generator: Adobe Illustrator 22.0.1, SVG Export Plug-In . SVG Version: 6.00 Build 0)  -->
<svg version="1.1" id="Layer_1" xmlns="http://www.w3.org/2000/svg" xmlns:xlink="http://www.w3.org/1999/xlink" x="0px" y="0px"
	 viewBox="0 0 30 30" style="enable-background:new 0 0 30 30;" xml:space="preserve">
<style type="text/css">
	.st0{fill:#FFFFFF;}
</style>
<g>
	<path class="st0" d="M25.5,9.5v3h-21v-3H25.5 M27,8H3v6h24V8L27,8z"/>
</g>
<g>
	<path class="st0" d="M23.5,14.5v12h-17v-12H23.5 M25,13H5v15h20V13L25,13z"/>
</g>
<g>
	<polygon class="st0" points="9.8,2.5 8.4,4 14.2,9.5 15.6,8 9.8,2.5 	"/>
</g>
<g>
	<polygon class="st0" points="20.1,2.5 14.5,8.1 15.9,9.5 21.5,3.9 20.1,2.5 	"/>
</g>
<g>
	<rect x="14.8" y="9.8" class="st0" width="0.5" height="16.5"/>
	<polygon class="st0" points="16,9 14,9 14,27 16,27 16,9 	"/>
</g>
</svg>
