<?xml version="1.0" encoding="utf-8"?>
<!-- Generator: Adobe Illustrator 22.0.1, SVG Export Plug-In . SVG Version: 6.00 Build 0)  -->
<svg version="1.1" id="Layer_1" xmlns="http://www.w3.org/2000/svg" xmlns:xlink="http://www.w3.org/1999/xlink" x="0px" y="0px"
	 viewBox="0 0 30 30" style="enable-background:new 0 0 30 30;" xml:space="preserve">
<style type="text/css">
	.st0{fill:#FFFFFF;}
</style>
<g>
	<path class="st0" d="M24.5,5.5v19h-20v-19H24.5 M26,4H3v22h23V4L26,4z"/>
</g>
<g>
	<polygon class="st0" points="10,1 8,1 8,7 10,7 10,1 	"/>
</g>
<g>
	<polygon class="st0" points="20,1 18,1 18,7 20,7 20,1 	"/>
</g>
<g>
	<polygon class="st0" points="10,12 7,12 7,15 10,15 10,12 	"/>
</g>
<g>
	<polygon class="st0" points="16,12 13,12 13,15 16,15 16,12 	"/>
</g>
<g>
	<polygon class="st0" points="22,12 19,12 19,15 22,15 22,12 	"/>
</g>
<g>
	<polygon class="st0" points="10,18 7,18 7,21 10,21 10,18 	"/>
</g>
<g>
	<polygon class="st0" points="16,18 13,18 13,21 16,21 16,18 	"/>
</g>
<g>
	<polygon class="st0" points="22,18 19,18 19,21 22,21 22,18 	"/>
</g>
</svg>
