<?xml version="1.0" encoding="utf-8"?>
<!-- Generator: Adobe Illustrator 22.0.1, SVG Export Plug-In . SVG Version: 6.00 Build 0)  -->
<svg version="1.1" id="Layer_1" xmlns="http://www.w3.org/2000/svg" xmlns:xlink="http://www.w3.org/1999/xlink" x="0px" y="0px"
	 viewBox="0 0 30 30" style="enable-background:new 0 0 30 30;" xml:space="preserve">
<style type="text/css">
	.st0{fill:#FFFFFF;}
</style>
<g>
	<rect x="14.8" y="2.8" class="st0" width="0.5" height="17.5"/>
	<polygon class="st0" points="16,2 14,2 14,21 16,21 16,2 	"/>
</g>
<g>
	<rect x="9.7" y="10.8" transform="matrix(0.7619 -0.6477 0.6477 0.7619 -8.3063 10.4065)" class="st0" width="0.5" height="11.5"/>
	<polygon class="st0" points="6.6,10.9 5,12.2 13.4,22.1 15,20.8 6.6,10.9 	"/>
</g>
<g>
	
		<rect x="14.2" y="16.2" transform="matrix(0.6542 -0.7563 0.7563 0.6542 -5.5635 20.8321)" class="st0" width="11.5" height="0.5"/>
	<polygon class="st0" points="23.5,10.9 15,20.8 16.5,22.1 25,12.2 23.5,10.9 	"/>
</g>
<g>
	<rect x="1.8" y="21.8" class="st0" width="26.5" height="1.5"/>
	<polygon class="st0" points="29,21 1,21 1,24 29,24 29,21 	"/>
</g>
</svg>
