<?xml version="1.0" encoding="utf-8"?>
<!-- Generator: Adobe Illustrator 22.0.1, SVG Export Plug-In . SVG Version: 6.00 Build 0)  -->
<svg version="1.1" id="Layer_1" xmlns="http://www.w3.org/2000/svg" xmlns:xlink="http://www.w3.org/1999/xlink" x="0px" y="0px"
	 viewBox="0 0 30 30" style="enable-background:new 0 0 30 30;" xml:space="preserve">
<style type="text/css">
	.st0{fill:#FFFFFF;}
</style>
<g>
	<path class="st0" d="M15,4.5c6.3,0,11.5,5.2,11.5,11.5S21.3,27.5,15,27.5S3.5,22.3,3.5,16S8.7,4.5,15,4.5 M15,3C7.8,3,2,8.8,2,16
		s5.8,13,13,13s13-5.8,13-13S22.2,3,15,3L15,3z"/>
</g>
<g>
	<path class="st0" d="M26,11H4c-0.5,0-1,0.4-1,1s0.5,1,1,1h22c0.5,0,1-0.4,1-1S26.5,11,26,11L26,11z"/>
</g>
<g>
	<path class="st0" d="M13,17H4c-0.5,0-1,0.5-1,1s0.5,1,1,1h9c0.6,0,1-0.5,1-1S13.6,17,13,17L13,17z"/>
</g>
<g>
	<path class="st0" d="M26,17h-9c-0.5,0-1,0.5-1,1s0.5,1,1,1h9c0.5,0,1-0.5,1-1S26.5,17,26,17L26,17z"/>
</g>
<g>
	<path class="st0" d="M13,17c-0.6,0-1,0.5-1,1v9c0,0.5,0.4,1,1,1s1-0.5,1-1v-9C14,17.5,13.6,17,13,17L13,17z"/>
</g>
<g>
	<path class="st0" d="M17,17c-0.5,0-1,0.5-1,1v9c0,0.5,0.5,1,1,1s1-0.5,1-1v-9C18,17.5,17.5,17,17,17L17,17z"/>
</g>
</svg>
