<?xml version="1.0" encoding="utf-8"?>
<!-- Generator: Adobe Illustrator 22.0.1, SVG Export Plug-In . SVG Version: 6.00 Build 0)  -->
<svg version="1.1" id="Layer_1" xmlns="http://www.w3.org/2000/svg" xmlns:xlink="http://www.w3.org/1999/xlink" x="0px" y="0px"
	 viewBox="0 0 30 30" style="enable-background:new 0 0 30 30;" xml:space="preserve">
<style type="text/css">
	.st0{fill:#FFFFFF;}
</style>
<g>
	<path class="st0" d="M14.4,5.6c4.3,0,7.8,2.7,7.8,6s-3.5,6-7.8,6s-7.8-2.7-7.8-6S10.1,5.6,14.4,5.6 M14.4,4.6c-4.8,0-8.8,3.1-8.8,7
		s3.9,7,8.8,7s8.8-3.1,8.8-7S19.2,4.6,14.4,4.6L14.4,4.6z"/>
</g>
<g>
	<path class="st0" d="M8.8,21.6c-4,0-7.3-3.3-7.3-7.3c0-1.2,1-2.2,2.2-2.2h22.6c1.2,0,2.2,1,2.2,2.2c0,4-3.3,7.3-7.3,7.3H8.8z"/>
	<path class="st0" d="M26.3,12.6c0.9,0,1.7,0.8,1.7,1.7c0,3.8-3.1,6.8-6.8,6.8H8.8C5.1,21.1,2,18,2,14.3c0-0.9,0.8-1.7,1.7-1.7H26.3
		 M26.3,11.6H3.7c-1.5,0-2.7,1.2-2.7,2.7v0c0,4.3,3.5,7.8,7.8,7.8h12.4c4.3,0,7.8-3.5,7.8-7.8v0C29,12.8,27.8,11.6,26.3,11.6
		L26.3,11.6z"/>
</g>
<g>
	<polygon class="st0" points="15,4.8 13.8,4.8 13.8,11.8 15,11.8 15,4.8 	"/>
</g>
<g>
	<circle class="st0" cx="8.1" cy="22" r="3"/>
	<path class="st0" d="M8.1,19.5c1.4,0,2.5,1.1,2.5,2.5s-1.1,2.5-2.5,2.5S5.6,23.4,5.6,22S6.8,19.5,8.1,19.5 M8.1,18.5
		c-1.9,0-3.5,1.6-3.5,3.5s1.6,3.5,3.5,3.5s3.5-1.6,3.5-3.5S10.1,18.5,8.1,18.5L8.1,18.5z"/>
</g>
<g>
	<circle class="st0" cx="20.7" cy="22" r="3"/>
	<path class="st0" d="M20.7,19.5c1.4,0,2.5,1.1,2.5,2.5s-1.1,2.5-2.5,2.5s-2.5-1.1-2.5-2.5S19.3,19.5,20.7,19.5 M20.7,18.5
		c-1.9,0-3.5,1.6-3.5,3.5s1.6,3.5,3.5,3.5s3.5-1.6,3.5-3.5S22.6,18.5,20.7,18.5L20.7,18.5z"/>
</g>
</svg>
